# xmcd CD database file
#
# Track frame offsets:
#	150
#	23387
#	43997
#	61802
#	88932
#
# Disc length: 1521 seconds
#
# Revision: 0
# Processed by: cddbd v1.5.1PL0 Copyright (c) Steve Scherf et al.
# Submitted via: CDex 1.50
#
DISCID=3705ef05
DTITLE=Anatoles - Sans courant
DYEAR=1900
DGENRE=Jazz
TTITLE0=Triac Four
TTITLE1=Coléoptaire
TTITLE2=Seyvon
TTITLE3=Sans courant
TTITLE4=Faux draix
EXTD=
EXTT0=
EXTT1=
EXTT2=
EXTT3=
EXTT4=
PLAYORDER=
